<svg width="176" height="201" viewBox="0 0 176 201" fill="none" xmlns="http://www.w3.org/2000/svg">
<g filter="url(#filter0_d_4654_7443)">
<path d="M48.1526 7H44.5762C39.0533 7 34.5762 11.4771 34.5762 17V48.0823C34.5762 53.6052 39.0533 58.0823 44.5762 58.0823H48.1526C53.6755 58.0823 58.1526 53.6052 58.1526 48.0824V17C58.1526 11.4772 53.6755 7 48.1526 7Z" fill="white"/>
<path d="M118.882 7H115.306C109.783 7 105.306 11.4771 105.306 17V48.0823C105.306 53.6052 109.783 58.0823 115.306 58.0823H118.882C124.405 58.0823 128.882 53.6052 128.882 48.0824V17C128.882 11.4772 124.405 7 118.882 7Z" fill="white"/>
<g filter="url(#filter1_bdii_4654_7443)">
<path d="M132.459 30.5764H31C19.9543 30.5764 11 39.5307 11 50.5764V154C11 165.046 19.9543 174 31 174H132.459C143.505 174 152.459 165.046 152.459 154V50.5764C152.459 39.5307 143.505 30.5764 132.459 30.5764Z" fill="white" fill-opacity="0.35" shape-rendering="crispEdges"/>
</g>
<path d="M54.0506 84.8004C55.5628 82.0943 57.6406 79.9361 60.2899 78.3259C62.8352 76.7828 65.5767 76.0056 68.5145 76.0056C71.158 76.0056 73.5994 76.5367 75.8446 77.5991C78.0898 78.6614 79.9829 80.1598 81.5297 82.0887C83.0246 80.2045 84.8946 78.7173 87.1398 77.6326C89.385 76.5479 91.8033 76 94.3948 76C97.3384 76 100.08 76.7716 102.62 78.3203C105.165 79.8634 107.179 81.921 108.68 84.4761C110.175 87.0368 110.948 89.7876 111 92.7341C110.948 96.0161 110.313 99.0353 109.095 101.792C107.872 104.542 106.019 107.154 103.526 109.619L84.9235 127.639C83.0534 129.451 80.0175 129.456 78.1417 127.639L59.4703 109.614C56.9769 107.148 55.1069 104.543 53.8602 101.786C52.7809 99.3987 52.1633 96.8044 52.0248 94.0145C51.8632 90.822 52.4865 87.5959 54.0564 84.7836L54.0506 84.8004Z" fill="white"/>
</g>
<defs>
<filter id="filter0_d_4654_7443" x="0.200001" y="0.200001" width="175.059" height="200.6" filterUnits="userSpaceOnUse" color-interpolation-filters="sRGB">
<feFlood flood-opacity="0" result="BackgroundImageFix"/>
<feColorMatrix in="SourceAlpha" type="matrix" values="0 0 0 0 0 0 0 0 0 0 0 0 0 0 0 0 0 0 127 0" result="hardAlpha"/>
<feOffset dx="6" dy="10"/>
<feGaussianBlur stdDeviation="8.4"/>
<feComposite in2="hardAlpha" operator="out"/>
<feColorMatrix type="matrix" values="0 0 0 0 0 0 0 0 0 0 0 0 0 0 0 0 0 0 0.25 0"/>
<feBlend mode="soft-light" in2="BackgroundImageFix" result="effect1_dropShadow_4654_7443"/>
<feBlend mode="normal" in="SourceGraphic" in2="effect1_dropShadow_4654_7443" result="shape"/>
</filter>
<filter id="filter1_bdii_4654_7443" x="-4.5" y="15.0764" width="172.459" height="174.424" filterUnits="userSpaceOnUse" color-interpolation-filters="sRGB">
<feFlood flood-opacity="0" result="BackgroundImageFix"/>
<feGaussianBlur in="BackgroundImageFix" stdDeviation="7.75"/>
<feComposite in2="SourceAlpha" operator="in" result="effect1_backgroundBlur_4654_7443"/>
<feColorMatrix in="SourceAlpha" type="matrix" values="0 0 0 0 0 0 0 0 0 0 0 0 0 0 0 0 0 0 127 0" result="hardAlpha"/>
<feOffset dx="3" dy="3"/>
<feGaussianBlur stdDeviation="5"/>
<feComposite in2="hardAlpha" operator="out"/>
<feColorMatrix type="matrix" values="0 0 0 0 0 0 0 0 0 0 0 0 0 0 0 0 0 0 1 0"/>
<feBlend mode="screen" in2="effect1_backgroundBlur_4654_7443" result="effect2_dropShadow_4654_7443"/>
<feBlend mode="normal" in="SourceGraphic" in2="effect2_dropShadow_4654_7443" result="shape"/>
<feColorMatrix in="SourceAlpha" type="matrix" values="0 0 0 0 0 0 0 0 0 0 0 0 0 0 0 0 0 0 127 0" result="hardAlpha"/>
<feOffset dx="-5" dy="-9"/>
<feGaussianBlur stdDeviation="5.2"/>
<feComposite in2="hardAlpha" operator="arithmetic" k2="-1" k3="1"/>
<feColorMatrix type="matrix" values="0 0 0 0 1 0 0 0 0 1 0 0 0 0 1 0 0 0 0.11 0"/>
<feBlend mode="normal" in2="shape" result="effect3_innerShadow_4654_7443"/>
<feColorMatrix in="SourceAlpha" type="matrix" values="0 0 0 0 0 0 0 0 0 0 0 0 0 0 0 0 0 0 127 0" result="hardAlpha"/>
<feOffset dx="-2" dy="2"/>
<feGaussianBlur stdDeviation="3.25"/>
<feComposite in2="hardAlpha" operator="arithmetic" k2="-1" k3="1"/>
<feColorMatrix type="matrix" values="0 0 0 0 1 0 0 0 0 1 0 0 0 0 1 0 0 0 0.3 0"/>
<feBlend mode="normal" in2="effect3_innerShadow_4654_7443" result="effect4_innerShadow_4654_7443"/>
</filter>
</defs>
</svg>
