<svg width="24" height="24" viewBox="0 0 24 24" fill="none" xmlns="http://www.w3.org/2000/svg">
<g clip-path="url(#clip0_4139_11107)">
<path d="M8.36055 0.789433C5.96258 1.62131 3.89457 3.20024 2.46029 5.29431C1.026 7.38838 0.301037 9.8872 0.391883 12.4237C0.482728 14.9603 1.38459 17.4008 2.96501 19.3869C4.54543 21.373 6.72109 22.8 9.17243 23.4582C11.1598 23.971 13.2419 23.9935 15.2399 23.5238C17.0499 23.1173 18.7233 22.2476 20.0962 21.0001C21.5251 19.662 22.5622 17.9597 23.0962 16.0763C23.6765 14.0282 23.7798 11.8743 23.3981 9.78006H12.2381V14.4094H18.7012C18.572 15.1478 18.2952 15.8525 17.8873 16.4814C17.4795 17.1102 16.9489 17.6504 16.3274 18.0694C15.5382 18.5915 14.6485 18.9428 13.7156 19.1007C12.7798 19.2747 11.82 19.2747 10.8843 19.1007C9.93591 18.9046 9.03874 18.5132 8.24993 17.9513C6.98271 17.0543 6.0312 15.7799 5.53118 14.3101C5.02271 12.8127 5.02271 11.1893 5.53118 9.69193C5.8871 8.64234 6.47549 7.68669 7.25243 6.89631C8.14154 5.97521 9.26718 5.3168 10.5058 4.99333C11.7445 4.66985 13.0484 4.6938 14.2743 5.06256C15.232 5.35654 16.1078 5.87019 16.8318 6.56256C17.5606 5.83756 18.2881 5.11068 19.0143 4.38193C19.3893 3.99006 19.7981 3.61693 20.1674 3.21568C19.0622 2.1872 17.765 1.38691 16.3499 0.860683C13.7731 -0.0749616 10.9536 -0.100106 8.36055 0.789433Z" fill="black"/>
</g>
<defs>
<clipPath id="clip0_4139_11107">
<rect width="24" height="24" fill="white"/>
</clipPath>
</defs>
</svg>
