<svg width="177" height="229" viewBox="0 0 177 229" fill="none" xmlns="http://www.w3.org/2000/svg">
<g filter="url(#filter0_d_4344_1494)">
<path d="M124.816 67.8033C124.475 82.8326 121.651 97.3335 114.476 110.781C110.081 119.021 103.968 125.773 96.9029 131.619C87.2724 139.591 77.368 147.237 67.5425 154.971C67.1112 155.311 66.0611 155.446 65.6711 155.16C52.7816 145.66 39.9596 136.058 28.6565 124.61C19.4047 115.239 14.1881 103.686 11.0867 91.0455C8.98284 82.4703 8.11278 73.7214 8.05278 64.9084C7.96278 52.2834 8.02653 39.6545 8.03028 27.0295C8.03028 26.603 8.09403 26.1765 8.12029 25.8557C14.0344 25.0102 19.8547 24.3346 25.615 23.3231C39.3933 20.9 52.6166 16.6803 65.1423 10.3584C66.1512 9.84885 66.9124 9.90169 67.8988 10.3961C84.696 18.7902 102.532 23.4401 121.148 25.2669C122.326 25.3801 123.503 25.516 124.782 25.6519C124.838 26.0746 124.947 26.4935 124.947 26.9125C124.928 40.5415 125.127 54.1781 124.816 67.8033Z" fill="url(#paint0_linear_4344_1494)" fill-opacity="0.6"/>
<path d="M168.004 89.9811C167.663 105.01 164.839 119.511 157.665 132.959C153.269 141.198 147.157 147.951 140.091 153.797C130.461 161.768 120.556 169.415 110.731 177.149C110.299 177.488 109.249 177.624 108.859 177.337C95.9699 167.837 83.1479 158.236 71.8447 146.788C62.5929 137.417 57.3764 125.863 54.2749 113.223C52.1711 104.648 51.301 95.8992 51.241 87.0862C51.151 74.4611 51.2148 61.8323 51.2185 49.2072C51.2185 48.7807 51.2823 48.3542 51.3085 48.0334C57.2226 47.188 63.0429 46.5124 68.8033 45.5009C82.5816 43.0777 95.8048 38.8581 108.331 32.5361C109.339 32.0266 110.101 32.0794 111.087 32.5739C127.884 40.9679 145.72 45.6179 164.336 47.4446C165.514 47.5579 166.691 47.6937 167.97 47.8296C168.027 48.2523 168.135 48.6713 168.135 49.0902C168.117 62.7192 168.315 76.3558 168.004 89.9811Z" fill="#E14F59"/>
<path d="M135.028 103.386C135 103.358 134.998 103.313 135.024 103.282C137.365 100.556 138.779 97.0117 138.779 93.137C138.779 84.5299 131.801 77.5525 123.194 77.5525C117.036 77.5525 111.713 81.1238 109.181 86.3082C108.981 86.7178 108.351 86.7178 108.151 86.3082C105.62 81.1238 100.296 77.5525 94.1387 77.5525C85.5316 77.5525 78.5542 84.53 78.5542 93.137C78.5542 97.9976 80.7793 102.338 84.2665 105.197C84.3205 105.241 84.3647 105.296 84.3982 105.357C84.5768 105.684 84.8045 105.991 85.0812 106.268L105.839 127.025C107.401 128.587 109.934 128.587 111.496 127.025L135.028 103.493C135.058 103.463 135.058 103.415 135.028 103.386Z" fill="white"/>
<path d="M124.816 67.9782C124.475 83.0529 121.651 97.5977 114.476 111.086C110.081 119.35 103.968 126.123 96.9029 131.987C87.2724 139.983 77.368 147.653 67.5425 155.41C67.1112 155.75 66.0611 155.887 65.6711 155.599C52.7816 146.07 39.9596 136.439 28.6565 124.957C19.4047 115.557 14.1881 103.969 11.0867 91.2907C8.98284 82.6895 8.11278 73.9142 8.05278 65.0745C7.96278 52.4113 8.02653 39.7443 8.03028 27.081C8.03028 26.6532 8.09403 26.2254 8.12029 25.9036C14.0344 25.0556 19.8547 24.378 25.615 23.3634C39.3933 20.933 52.6166 16.7006 65.1423 10.3595C66.1512 9.84839 66.9124 9.90139 67.8988 10.3973C84.696 18.8168 102.532 23.4808 121.148 25.3131C122.326 25.4266 123.503 25.5629 124.782 25.6992C124.838 26.1232 124.947 26.5434 124.947 26.9637C124.928 40.6339 125.127 54.3117 124.816 67.9782Z" fill="url(#paint1_linear_4344_1494)" fill-opacity="0.6"/>
<path d="M168.004 90.223C167.663 105.298 164.839 119.843 157.665 133.331C153.269 141.595 147.157 148.368 140.091 154.232C130.461 162.227 120.556 169.897 110.731 177.654C110.299 177.995 109.249 178.131 108.859 177.844C95.9699 168.315 83.1479 158.684 71.8447 147.202C62.5929 137.802 57.3764 126.214 54.2749 113.536C52.1711 104.934 51.301 96.159 51.241 87.3194C51.151 74.6561 51.2148 61.9891 51.2185 49.3258C51.2185 48.898 51.2823 48.4703 51.3085 48.1485C57.2226 47.3005 63.0429 46.6228 68.8033 45.6083C82.5816 43.1778 95.8048 38.9454 108.331 32.6043C109.339 32.0932 110.101 32.1462 111.087 32.6421C127.884 41.0616 145.72 45.7256 164.336 47.5579C165.514 47.6715 166.691 47.8078 167.97 47.944C168.027 48.368 168.135 48.7883 168.135 49.2085C168.117 62.8787 168.315 76.5566 168.004 90.223Z" fill="#E14F59"/>
<path d="M135.028 103.668C135 103.64 134.998 103.595 135.024 103.565C137.365 100.83 138.779 97.275 138.779 93.3885C138.779 84.7554 131.801 77.7569 123.194 77.7569C117.037 77.7569 111.713 81.3387 109.182 86.5384C108.982 86.9487 108.351 86.9487 108.151 86.5384C105.62 81.3387 100.296 77.7569 94.1387 77.7569C85.5316 77.7569 78.5542 84.7554 78.5542 93.3886C78.5542 98.2625 80.7782 102.616 84.2638 105.482C84.3176 105.527 84.3617 105.581 84.395 105.643C84.5734 105.97 84.8008 106.278 85.0771 106.555L105.843 127.384C107.403 128.948 109.932 128.948 111.492 127.384L135.028 103.776C135.058 103.746 135.058 103.698 135.028 103.668Z" fill="white"/>
<path d="M7.67676 224V205.617H11.9932V220.471H19.7119V224H7.67676Z" fill="#E14F59"/>
<path d="M37.8256 214.809C37.8256 220.877 34.017 224.254 29.0912 224.254C24.14 224.254 20.3568 220.852 20.3568 214.809C20.3568 208.74 24.14 205.363 29.0912 205.363C34.017 205.363 37.8256 208.74 37.8256 214.809ZM33.4076 214.809C33.4076 211.152 31.7826 209.172 29.0912 209.172C26.3998 209.172 24.7748 211.152 24.7748 214.809C24.7748 218.465 26.3998 220.445 29.0912 220.445C31.7826 220.445 33.4076 218.465 33.4076 214.809Z" fill="#E14F59"/>
<path d="M42.6346 205.617L46.824 219.176H46.9764L51.1658 205.617H55.99L49.7693 224H44.0311L37.785 205.617H42.6346Z" fill="#E14F59"/>
<path d="M57.2951 224V205.617H70.0158V209.146H61.6115V213.031H69.3557V216.561H61.6115V220.471H70.0412V224H57.2951Z" fill="#E14F59"/>
<path d="M77.2979 224V205.617H81.6143V213.463H81.8682L88.0381 205.617H93.167L86.5908 213.818L93.2686 224H88.0889L83.4424 216.713L81.6143 218.973V224H77.2979Z" fill="#E14F59"/>
<path d="M94.2436 224V205.617H106.964V209.146H98.56V213.031H106.304V216.561H98.56V220.471H106.99V224H94.2436Z" fill="#E14F59"/>
<path d="M109.082 224V205.617H121.803V209.146H113.398V213.031H121.142V216.561H113.398V220.471H121.828V224H109.082Z" fill="#E14F59"/>
<path d="M123.92 224V205.617H131.436C135.574 205.617 138.113 208.207 138.113 211.939C138.113 215.748 135.524 218.236 131.309 218.236H128.237V224H123.92ZM128.237 214.809H130.522C132.553 214.809 133.645 213.666 133.645 211.939C133.645 210.213 132.553 209.121 130.522 209.121H128.237V214.809Z" fill="#E14F59"/>
<path d="M139.647 224V205.617H152.368V209.146H143.963V213.031H151.708V216.561H143.963V220.471H152.393V224H139.647Z" fill="#E14F59"/>
<path d="M154.485 224V205.617H162.001C166.14 205.617 168.679 207.953 168.679 211.711C168.679 214.237 167.523 216.053 165.505 216.967L169.339 224H164.591L161.214 217.678H158.802V224H154.485ZM158.802 214.225H161.087C163.118 214.225 164.21 213.438 164.21 211.711C164.21 209.984 163.118 209.121 161.087 209.121H158.802V214.225Z" fill="#E14F59"/>
<path d="M7.67676 224V205.617H11.9932V220.471H19.7119V224H7.67676Z" fill="#E14F59"/>
<path d="M37.8256 214.809C37.8256 220.877 34.017 224.254 29.0912 224.254C24.14 224.254 20.3568 220.852 20.3568 214.809C20.3568 208.74 24.14 205.363 29.0912 205.363C34.017 205.363 37.8256 208.74 37.8256 214.809ZM33.4076 214.809C33.4076 211.152 31.7826 209.172 29.0912 209.172C26.3998 209.172 24.7748 211.152 24.7748 214.809C24.7748 218.465 26.3998 220.445 29.0912 220.445C31.7826 220.445 33.4076 218.465 33.4076 214.809Z" fill="#E14F59"/>
<path d="M42.6346 205.617L46.824 219.176H46.9764L51.1658 205.617H55.99L49.7693 224H44.0311L37.785 205.617H42.6346Z" fill="#E14F59"/>
<path d="M57.2951 224V205.617H70.0158V209.146H61.6115V213.031H69.3557V216.561H61.6115V220.471H70.0412V224H57.2951Z" fill="#E14F59"/>
<path d="M77.2979 224V205.617H81.6143V213.463H81.8682L88.0381 205.617H93.167L86.5908 213.818L93.2686 224H88.0889L83.4424 216.713L81.6143 218.973V224H77.2979Z" fill="#E14F59"/>
<path d="M94.2436 224V205.617H106.964V209.146H98.56V213.031H106.304V216.561H98.56V220.471H106.99V224H94.2436Z" fill="#E14F59"/>
<path d="M109.082 224V205.617H121.803V209.146H113.398V213.031H121.142V216.561H113.398V220.471H121.828V224H109.082Z" fill="#E14F59"/>
<path d="M123.92 224V205.617H131.436C135.574 205.617 138.113 208.207 138.113 211.939C138.113 215.748 135.524 218.236 131.309 218.236H128.237V224H123.92ZM128.237 214.809H130.522C132.553 214.809 133.645 213.666 133.645 211.939C133.645 210.213 132.553 209.121 130.522 209.121H128.237V214.809Z" fill="#E14F59"/>
<path d="M139.647 224V205.617H152.368V209.146H143.963V213.031H151.708V216.561H143.963V220.471H152.393V224H139.647Z" fill="#E14F59"/>
<path d="M154.485 224V205.617H162.001C166.14 205.617 168.679 207.953 168.679 211.711C168.679 214.237 167.523 216.053 165.505 216.967L169.339 224H164.591L161.214 217.678H158.802V224H154.485ZM158.802 214.225H161.087C163.118 214.225 164.21 213.438 164.21 211.711C164.21 209.984 163.118 209.121 161.087 209.121H158.802V214.225Z" fill="#E14F59"/>
<path d="M35 215C35 218.314 32.3137 221 29 221C25.6863 221 23 218.314 23 215C23 211.686 25.6863 209 29 209C32.3137 209 35 211.686 35 215Z" fill="#E14F59"/>
<path d="M24.6309 215.2C24.2378 214.754 24 214.174 24 213.538C24 212.137 25.1586 211 26.5878 211C27.6859 211 28.6242 211.671 29 212.618C29.3759 211.671 30.3142 211 31.4123 211C32.8415 211 34.0001 212.137 34.0001 213.538C34.0001 214.174 33.7622 214.754 33.3691 215.2L33.3861 215.216L29 219.519L24.6139 215.216L24.6309 215.2Z" fill="white"/>
</g>
<defs>
<filter id="filter0_d_4344_1494" x="0.676758" y="0" width="175.662" height="228.254" filterUnits="userSpaceOnUse" color-interpolation-filters="sRGB">
<feFlood flood-opacity="0" result="BackgroundImageFix"/>
<feColorMatrix in="SourceAlpha" type="matrix" values="0 0 0 0 0 0 0 0 0 0 0 0 0 0 0 0 0 0 127 0" result="hardAlpha"/>
<feOffset dy="-3"/>
<feGaussianBlur stdDeviation="3.5"/>
<feComposite in2="hardAlpha" operator="out"/>
<feColorMatrix type="matrix" values="0 0 0 0 0 0 0 0 0 0 0 0 0 0 0 0 0 0 0.1 0"/>
<feBlend mode="overlay" in2="BackgroundImageFix" result="effect1_dropShadow_4344_1494"/>
<feBlend mode="normal" in="SourceGraphic" in2="effect1_dropShadow_4344_1494" result="shape"/>
</filter>
<linearGradient id="paint0_linear_4344_1494" x1="88.5078" y1="10" x2="88.5078" y2="224.254" gradientUnits="userSpaceOnUse">
<stop stop-color="#FFC0CF"/>
<stop offset="1" stop-color="#F1828E"/>
</linearGradient>
<linearGradient id="paint1_linear_4344_1494" x1="88.5078" y1="10" x2="88.5078" y2="224.254" gradientUnits="userSpaceOnUse">
<stop stop-color="#FFC0CF"/>
<stop offset="1" stop-color="#F1828E"/>
</linearGradient>
</defs>
</svg>
