<svg width="17" height="17" viewBox="0 0 17 17" fill="none" xmlns="http://www.w3.org/2000/svg">
<g clip-path="url(#clip0_4654_7172)">
<path d="M5.92232 0.559039C4.22376 1.14829 2.75892 2.2667 1.74297 3.74999C0.727015 5.23329 0.213499 7.00329 0.277848 8.80001C0.342197 10.5967 0.981019 12.3255 2.10048 13.7323C3.21994 15.1391 4.76104 16.1498 6.4974 16.6161C7.90511 16.9793 9.37998 16.9953 10.7952 16.6626C12.0773 16.3746 13.2626 15.7586 14.2351 14.8749C15.2472 13.9271 15.9819 12.7213 16.3601 11.3872C16.7711 9.93649 16.8443 8.41082 16.5739 6.9274H8.66889V10.2065H13.2469C13.1554 10.7295 12.9594 11.2287 12.6705 11.6742C12.3816 12.1196 12.0057 12.5022 11.5655 12.799C11.0065 13.1688 10.3763 13.4176 9.71545 13.5295C9.05264 13.6528 8.37279 13.6528 7.70998 13.5295C7.0382 13.3906 6.4027 13.1133 5.84396 12.7154C4.94635 12.08 4.27236 11.1773 3.91818 10.1361C3.55801 9.0755 3.55801 7.92562 3.91818 6.86498C4.1703 6.12151 4.58707 5.44459 5.1374 4.88474C5.76719 4.2323 6.56451 3.76593 7.44191 3.5368C8.3193 3.30767 9.24285 3.32463 10.1112 3.58584C10.7896 3.79407 11.4099 4.15791 11.9228 4.64834C12.439 4.13479 12.9543 3.61992 13.4687 3.10373C13.7344 2.82615 14.0239 2.56185 14.2855 2.27763C13.5027 1.54912 12.5838 0.982255 11.5815 0.609508C9.75623 -0.0532402 7.75909 -0.0710509 5.92232 0.559039Z" fill="white"/>
<path d="M5.92176 0.559196C7.75837 -0.071322 9.75551 -0.0539801 11.5809 0.608337C12.5834 0.983617 13.5019 1.55322 14.2836 2.28443C14.018 2.56865 13.7378 2.83427 13.4668 3.11052C12.9515 3.62495 12.4367 4.13761 11.9222 4.64849C11.4094 4.15807 10.789 3.79423 10.1107 3.58599C9.24257 3.32388 8.31905 3.30593 7.44142 3.53412C6.5638 3.76231 5.76598 4.22782 5.13551 4.87959C4.58518 5.43944 4.1684 6.11636 3.91629 6.85982L1.16309 4.72818C2.14857 2.77393 3.85486 1.27907 5.92176 0.559196Z" fill="#E33629"/>
<path d="M0.433238 6.83975C0.58122 6.10635 0.8269 5.39611 1.16371 4.72803L3.91691 6.86498C3.55674 7.92563 3.55674 9.0755 3.91691 10.1362C2.99962 10.8445 2.08188 11.5564 1.16371 12.2718C0.320548 10.5934 0.063399 8.68119 0.433238 6.83975Z" fill="#F8BD00"/>
<path d="M8.66856 6.92627H16.5736C16.844 8.4097 16.7708 9.93536 16.3597 11.3861C15.9815 12.7202 15.2469 13.9259 14.2347 14.8738C13.3462 14.1805 12.4537 13.4925 11.5652 12.7992C12.0057 12.5021 12.3817 12.1191 12.6706 11.6732C12.9595 11.2272 13.1554 10.7276 13.2466 10.2041H8.66856C8.66723 9.11236 8.66856 8.01932 8.66856 6.92627Z" fill="#587DBD"/>
<path d="M1.16211 12.2719C2.08029 11.5635 2.99802 10.8516 3.91531 10.1362C4.2702 11.1777 4.94515 12.0805 5.84375 12.7154C6.40423 13.1116 7.0411 13.3866 7.71375 13.5229C8.37656 13.6462 9.05641 13.6462 9.71922 13.5229C10.3801 13.4111 11.0103 13.1623 11.5693 12.7925C12.4578 13.4858 13.3503 14.1737 14.2388 14.867C13.2665 15.7512 12.0812 16.3676 10.799 16.656C9.38375 16.9887 7.90888 16.9727 6.50117 16.6095C5.38781 16.3122 4.34785 15.7882 3.44648 15.0702C2.49244 14.3128 1.71322 13.3582 1.16211 12.2719Z" fill="#319F43"/>
</g>
<defs>
<clipPath id="clip0_4654_7172">
<rect width="17" height="17" fill="white"/>
</clipPath>
</defs>
</svg>
